<svg width="24" height="24" viewBox="0 0 32 32" xmlns="http://www.w3.org/2000/svg">
  <circle cx="16" cy="16" r="15" fill="none" stroke="#475569" stroke-width="2"/>
  <path d="M8 16.5v-1h3.5c0-.8-.2-1.5-.6-2.1l-2.5 2.5c-.3.3-.3.8 0 1.1.1.1.3.2.4.2s.3-.1.4-.2l2.5-2.5c.6-.4 1.3-.6 2.1-.6V8h1v3.5c.8 0 1.5.2 2.1.6l2.5-2.5c.3-.3.8-.3 1.1 0 .3.3.3.8 0 1.1L18 12.9c.4.6.6 1.3.6 2.1H24v1h-5.5c0 .8-.2 1.5-.6 2.1l2.5 2.5c.3.3.3.8 0 1.1-.1.1-.3.2-.4.2s-.3-.1-.4-.2L17 19.1c-.6.4-1.3.6-2.1.6V24h-1v-4.5c-.8 0-1.5-.2-2.1-.6l-2.5 2.5c-.3.3-.8.3-1.1 0-.3-.3-.3-.8 0-1.1L10.9 18c-.4-.6-.6-1.3-.6-2.1H8z" fill="#475569"/>
  <circle cx="11.5" cy="11.5" r="1.5" fill="#475569"/>
  <circle cx="20.5" cy="11.5" r="1.5" fill="#475569"/>
  <circle cx="16" cy="20.5" r="1.5" fill="#475569"/>
</svg>